<svg xmlns="http://www.w3.org/2000/svg" width="62" height="62"><path d="M14.112 20.1a.97.97 0 010-1.94h10.01a.97.97 0 010 1.94h-10.01zm5.974 4.035a.97.97 0 11-1.939 0V14.121a.97.97 0 111.939 0V24.13zm17.8-4.035a.97.97 0 010-1.94h10.009a.97.97 0 010 1.94h-10.01zm-26.9 11.886a.97.97 0 010-1.94h40.04a.97.97 0 010 1.94h-40.04zm20.99 19.05a.97.97 0 01-1.94 0V10.993a.97.97 0 011.94 0v40.038zM56.03 1.958H5.979a4.018 4.018 0 00-2.848 1.183 4.025 4.025 0 00-1.182 2.847v50.048a4.038 4.038 0 001.182 2.85 4.039 4.039 0 002.849 1.181h50.048a4.044 4.044 0 002.85-1.181 4.038 4.038 0 001.181-2.85V5.987a4.036 4.036 0 00-1.181-2.848 4.039 4.039 0 00-2.85-1.181zM5.982.018H56.03a5.957 5.957 0 014.216 1.754A5.956 5.956 0 0162 5.987v50.048a5.959 5.959 0 01-1.754 4.217 5.957 5.957 0 01-4.216 1.754H5.979a5.957 5.957 0 01-4.216-1.754 5.959 5.959 0 01-1.754-4.217V5.987a5.955 5.955 0 011.753-4.212A5.956 5.956 0 015.979.013zM57 51.031a.97.97 0 11-1.94 0V6.957H6.949v48.108h49.078a.97.97 0 010 1.94H5.979a.972.972 0 01-.97-.97V5.987a.971.971 0 01.97-.969h50.048a.971.971 0 01.97.969v45.044zm-42.727-7.044a.97.97 0 110-1.939h9.694a.97.97 0 110 1.939H14.27zm2.907-4.365a.97.97 0 110-1.939h1.941a.97.97 0 010 1.939H17.18zm1.941 8.729a.97.97 0 110-1.94h1.939a.97.97 0 110 1.94h-1.939zm18.767-7.276a.97.97 0 110-1.939h10.009a.97.97 0 110 1.939H37.885zm0 5.812a.97.97 0 110-1.94h10.009a.97.97 0 110 1.94H37.885z" fill="#5dd39e" fill-rule="evenodd"/></svg>