<svg xmlns="http://www.w3.org/2000/svg" width="62" height="62"><path d="M4.837 36.8a.964.964 0 110-1.928l4.774.008 8.052-9.358a.965.965 0 011.361-.105.986.986 0 01.166.183l6.994 8.738L40.92 17.761a.967.967 0 011.366-.08l.079.079 8.821 8.81 3.22-4.83a.966.966 0 111.6 1.076l-3.848 5.772a.949.949 0 01-.141.179.968.968 0 01-1.366 0l-8.969-8.959L26.87 36.479a1.15 1.15 0 01-.119.112.965.965 0 01-1.354-.151l-7.025-8.778-7.583 8.813a.96.96 0 01-.732.338l-5.217-.01zm37.487-19.082l.041.042zm-12.3-11.906a.969.969 0 110 1.938H1.932v34.886h58.121V7.75H33.9a.969.969 0 010-1.938h27.126a.97.97 0 01.969.969V43.6a.969.969 0 01-.969.969H.963a.97.97 0 01-.969-.969V6.781a.97.97 0 01.969-.969h29.063zM29.056.966a.964.964 0 011.928 0v5.812a.965.965 0 01-1.929 0zm0 46.5a.965.965 0 011.929 0v9.691a.964.964 0 01-1.928 0zM15.53 47.2a.966.966 0 111.859.528l-3.866 13.564a.967.967 0 01-1.861-.529zm27.126.528a.967.967 0 011.86-.528l3.872 13.563a.967.967 0 01-1.86.529zm-41.693.724a.969.969 0 110-1.937h60.059a.969.969 0 110 1.937H.963z" fill="#5dd39e" fill-rule="evenodd"/></svg>