<svg xmlns="http://www.w3.org/2000/svg" width="61.97" height="46"><path d="M20.99 13.655a7.265 7.265 0 012.76.547 7.181 7.181 0 012.34 1.553 7.108 7.108 0 012.12 5.069 7.191 7.191 0 01-.55 2.742l-.02.046a7.185 7.185 0 01-1.55 2.282 7.106 7.106 0 01-2.34 1.552 7.249 7.249 0 01-5.52 0l-.05-.02a7.29 7.29 0 01-2.3-1.533 7.143 7.143 0 01-2.11-5.07 7 7 0 01.55-2.741l.02-.047a7.142 7.142 0 011.54-2.281 7.287 7.287 0 012.35-1.552 7.227 7.227 0 012.76-.547zm2.02 2.317a5.375 5.375 0 00-4.04 0h-.01a5.407 5.407 0 00-1.71 1.143 5.17 5.17 0 00-1.13 1.654l-.02.049a5.116 5.116 0 00-.4 2.006 5.243 5.243 0 001.55 3.711 5.342 5.342 0 001.67 1.122l.05.019a5.375 5.375 0 004.04 0 5.244 5.244 0 001.71-1.141 5.394 5.394 0 001.14-1.655l.02-.05a5.288 5.288 0 00.39-2.006 5.2 5.2 0 00-1.55-3.709 5.33 5.33 0 00-1.71-1.143zm-1.05 13.543a.97.97 0 01-1.94 0v-2.483a.97.97 0 011.94 0v2.483zm26.54-9.652a.962.962 0 110 1.923H36a.962.962 0 110-1.923h12.5zm0-6.208a.962.962 0 110 1.923H36a.962.962 0 110-1.923h12.5zm0 12.415a.962.962 0 110 1.923H36a.962.962 0 110-1.923h12.5zm-27.51-8.69a3.47 3.47 0 012.45 1.009l.07.071a3.455 3.455 0 01.95 2.364 3.418 3.418 0 01-1.02 2.433 3.457 3.457 0 11-4.91-4.867h.01a3.469 3.469 0 012.45-1.008zm1.08 2.369a1.537 1.537 0 00-1.08-.446 1.555 1.555 0 00-1.09.44 1.528 1.528 0 002.17 2.151h.01a1.535 1.535 0 00.04-2.109l-.05-.041zm1.44-1.289l-.07 1.289a.954.954 0 00.07-1.289zM8.48 44.072a.962.962 0 110 1.924h-2.5a.962.962 0 110-1.924h2.5zm47.53 0a.962.962 0 010 1.924H53.5a.962.962 0 110-1.924h2.51zM5.98 0h50.03a5.963 5.963 0 014.21 1.741 5.9 5.9 0 011.76 4.186v29.8a5.9 5.9 0 01-1.76 4.186 5.967 5.967 0 01-4.21 1.741H5.98a5.99 5.99 0 01-4.22-1.74 5.889 5.889 0 01-1.75-4.187v-29.8a5.892 5.892 0 011.75-4.182h.01A5.96 5.96 0 015.98.007zm50.03 1.923H5.98a4.049 4.049 0 00-2.85 1.173 3.967 3.967 0 00-1.18 2.827v29.8a3.978 3.978 0 001.18 2.827 4.04 4.04 0 002.85 1.177h50.03a4.035 4.035 0 002.84-1.178 3.988 3.988 0 001.19-2.826v-29.8a3.99 3.99 0 00-1.19-2.827 4.034 4.034 0 00-2.84-1.173zm.96 28.833a.965.965 0 01-1.93 0V6.889H6.95v27.873h49.06a.962.962 0 010 1.923H5.98a.971.971 0 01-.97-.962v-29.8a.971.971 0 01.97-.962h50.03a.962.962 0 01.96.962v24.829zM21.96 14.617a.97.97 0 01-1.94 0v-2.483a.97.97 0 011.94 0v2.483zm7.78 5.246a.962.962 0 110 1.923h-2.5a.962.962 0 110-1.923h2.5zm-15.01 0a.962.962 0 110 1.923h-2.5a.962.962 0 110-1.923h2.5zm13.13 6.426a.954.954 0 010 1.36.975.975 0 01-1.37 0l-1.77-1.755a.965.965 0 011.37-1.359zM17.25 15.755a.954.954 0 010 1.36.975.975 0 01-1.37 0l-1.77-1.755a.955.955 0 010-1.361.977.977 0 011.37 0zm-1.77 11.894a.978.978 0 01-1.37 0 .958.958 0 01.01-1.356l1.77-1.754a.961.961 0 011.36 1.359zm10.61-10.534a.965.965 0 01-1.37-1.36l1.77-1.756a.977.977 0 011.37 0 .955.955 0 010 1.361z" fill="#5dd39e" fill-rule="evenodd"/></svg>