<svg xmlns="http://www.w3.org/2000/svg" width="61.97" height="61.844"><path d="M11.62 59.911a.967.967 0 110 1.933 11.591 11.591 0 01-1.01-23.139.965.965 0 11.15 1.924 9.66 9.66 0 00.86 19.282zm35.83 0a.967.967 0 110 1.933H11.41a.967.967 0 110-1.933h36.04zM18.28 40.756a.961.961 0 11-1.1 1.577 10 10 0 00-1.62-.911l-.08-.037a9.917 9.917 0 00-1.69-.554 9.626 9.626 0 00-3.85-.1.965.965 0 11-.33-1.9 11.723 11.723 0 012.3-.169 11.432 11.432 0 014.34.958l.09.033a11.438 11.438 0 011.94 1.103zm-10.4 9.492a.965.965 0 11-1.93 0 6.236 6.236 0 01.11-1.136 6.206 6.206 0 01.34-1.092 5.761 5.761 0 01.53-.973 5.5 5.5 0 01.7-.855 6.058 6.058 0 01.86-.7 5.593 5.593 0 01.97-.522 6.019 6.019 0 01.85-.285l.04-.007a5.886 5.886 0 01.84-.14.975.975 0 011.05.879.965.965 0 01-.88 1.045 4.24 4.24 0 00-.55.085l-.04.01a4 4 0 00-.56.186 3.647 3.647 0 00-.64.349 3.906 3.906 0 00-.57.47 3.536 3.536 0 00-.47.567 3.689 3.689 0 00-.35.64 3.766 3.766 0 00-.22.722 3.568 3.568 0 00-.08.757zm39.57 11.6a.967.967 0 110-1.933 12.719 12.719 0 002.51-.246 12.318 12.318 0 002.39-.737 12.783 12.783 0 002.13-1.155 13.234 13.234 0 001.87-1.54 13 13 0 001.54-1.867 13.583 13.583 0 001.16-2.122 12.568 12.568 0 000-9.782 13.484 13.484 0 00-1.16-2.121 12.849 12.849 0 00-1.54-1.868 13.3 13.3 0 00-1.87-1.54 12.711 12.711 0 00-2.13-1.155 12.321 12.321 0 00-2.39-.738 12.517 12.517 0 00-9.54 1.891 12.383 12.383 0 00-1.87 1.542.973.973 0 01-1.37 0 .962.962 0 010-1.367 14.581 14.581 0 0110.27-4.244 14.561 14.561 0 018.11 2.471 14.836 14.836 0 012.16 1.773 14.452 14.452 0 011.77 2.155 13.92 13.92 0 011.33 2.455 15.071 15.071 0 01.86 2.762 14.426 14.426 0 010 5.756 14.193 14.193 0 01-.86 2.756 13.991 13.991 0 01-1.33 2.455 14.351 14.351 0 01-1.77 2.155 14.556 14.556 0 01-4.62 3.1 14.422 14.422 0 01-2.77.852 14.654 14.654 0 01-2.88.288zM45.7 28.653a.959.959 0 01-.12 1.354.97.97 0 01-1.36-.124 19.374 19.374 0 00-2.47-2.466 18.707 18.707 0 00-2.87-1.948.964.964 0 01.93-1.69 20.145 20.145 0 013.17 2.152 20.576 20.576 0 012.72 2.722zm-28.89-2.515a.962.962 0 011.25 1.463 18.068 18.068 0 00-2.91 3.123 17.543 17.543 0 00-2.08 3.683.98.98 0 01-1.27.52.968.968 0 01-.52-1.259 20.429 20.429 0 012.31-4.083 20.151 20.151 0 013.22-3.447zm37.41 21.218a.965.965 0 11-1.93 0 5.792 5.792 0 00-.09-.963h-.01a4.321 4.321 0 00-.28-.919 5.807 5.807 0 00-.44-.814l-.03-.034a4.705 4.705 0 00-.57-.685l-.05-.055a4.949 4.949 0 00-.67-.54 5 5 0 00-.81-.444 5.113 5.113 0 00-.92-.279l-.08-.018a4.988 4.988 0 00-.89-.078.967.967 0 110-1.933 6.893 6.893 0 011.26.121l.08.013a6.777 6.777 0 013.39 1.791l.06.055a6.956 6.956 0 01.79.953l.04.053a7.775 7.775 0 01.62 1.147 6.777 6.777 0 01.4 1.289 6.741 6.741 0 01.13 1.336zm-21.3-29.123h4.26a.964.964 0 01.96.967.892.892 0 01-.13.484L27.61 43.03a.96.96 0 01-1.27.489.973.973 0 01-.57-.878V25.37h-4.26a.963.963 0 01-.96-.965.89.89 0 01.13-.484L31.07.574a.968.968 0 011.85.39v17.265zm2.77 1.933h-3.74a.963.963 0 01-.96-.966V5.505L23 23.438h3.73a.966.966 0 01.97.967v13.691z" fill="#5dd39e" fill-rule="evenodd"/></svg>