<svg xmlns="http://www.w3.org/2000/svg" width="46.47" height="39"><path d="M25.65 15.89a.72.72 0 110-1.44h17.2a3.582 3.582 0 011.38.28 3.733 3.733 0 011.18.78 3.6 3.6 0 01.01 5.1 3.586 3.586 0 01-2.57 1.06H32.29a.72.72 0 010-1.44h10.56a2.052 2.052 0 00.83-.17 2.255 2.255 0 00.71-.47 2.185 2.185 0 00.64-1.53 2.039 2.039 0 00-.17-.82 2.147 2.147 0 00-.47-.71 2.373 2.373 0 00-.71-.47 2.124 2.124 0 00-.83-.17h-17.2zM26.24.38a.723.723 0 111.27.69L21.02 12.9a.729.729 0 01-.98.28.712.712 0 01-.29-.97zM19.8 12.11a.74.74 0 011.02-.13.719.719 0 01.14 1.01 6.832 6.832 0 01-3.15 2.53 9.831 9.831 0 01-3.38.38.734.734 0 01-.73-.73.726.726 0 01.73-.72 8.758 8.758 0 002.9-.29 5.394 5.394 0 002.47-2.05zm7.08-10.67a.72.72 0 110-1.44 3.79 3.79 0 01.86.1l.04.01a4.542 4.542 0 012.05 1.06 3.212 3.212 0 011.06 2.4h.01a3.683 3.683 0 01-.09.79.745.745 0 01-.87.56.72.72 0 01-.55-.86 2.146 2.146 0 00.05-.49h.01a1.825 1.825 0 00-.61-1.35 3.063 3.063 0 00-1.4-.71h-.01a2.855 2.855 0 00-.55-.07zm2.52 2.57a.723.723 0 011.39.4l-1.95 6.81a.727.727 0 01-1.4-.39zM1.46 37.57h8.71V14.45H1.46v23.12zm9.44 1.45H.73a.726.726 0 01-.72-.73V13.73a.717.717 0 01.72-.72H10.9a.717.717 0 01.72.72v24.56a.726.726 0 01-.72.73zm14.72-1.42a.715.715 0 01.5.88.732.732 0 01-.89.51l-6.97-1.92h-3.82a.725.725 0 110-1.45h3.91a.582.582 0 01.19.03zm19.41-13.76a.717.717 0 01.72-.72.726.726 0 01.73.72 3.62 3.62 0 01-.28 1.38 3.69 3.69 0 01-.78 1.17 3.7 3.7 0 01-2.57 1.06H32.29a.72.72 0 110-1.44h10.56a2.052 2.052 0 00.83-.17 2.255 2.255 0 00.71-.47 2.185 2.185 0 00.64-1.53zm-2.91 5.78a.726.726 0 01.73-.72.717.717 0 01.72.72A3.61 3.61 0 0143.3 31a3.609 3.609 0 01-.79 1.17l-.05.05a3.588 3.588 0 01-2.52 1.01H29.39a.72.72 0 110-1.44h10.55a2.231 2.231 0 00.83-.16 2.41 2.41 0 00.68-.44l.03-.04a2.085 2.085 0 00.48-.7 2.271 2.271 0 00.16-.83zM36.5 35.4a.73.73 0 011.46 0 3.565 3.565 0 01-1.07 2.55l-.05.05a3.6 3.6 0 01-2.51 1.01h-8.91a.72.72 0 010-1.44h8.91a2.178 2.178 0 001.5-.6l.03-.04a2.121 2.121 0 00.64-1.53z" fill="#18d433" fill-rule="evenodd"/></svg>