<svg xmlns="http://www.w3.org/2000/svg" width="34.5" height="46.5"><path d="M30.03 1.44H4.467a2.994 2.994 0 00-2.132.89 3.041 3.041 0 00-.885 2.14v37.56a3 3 0 00.884 2.13v.01a3.036 3.036 0 002.132.88H30.03a3.034 3.034 0 003.019-3.02V4.47a3.034 3.034 0 00-3.019-3.03zM4.467-.01H30.03a4.495 4.495 0 014.471 4.48v37.56a4.495 4.495 0 01-4.471 4.48H4.467a4.459 4.459 0 01-3.155-1.32A4.47 4.47 0 010 42.03V4.47a4.462 4.462 0 011.312-3.16A4.42 4.42 0 014.467-.01zm26.289 33.68a.726.726 0 11-1.452 0V5.2H5.192v31.5H30.03a.731.731 0 01.726.73.722.722 0 01-.726.72H4.467a.721.721 0 01-.726-.72V4.47a.73.73 0 01.726-.73H30.03a.731.731 0 01.726.73v29.2zM17.25 40.92a.691.691 0 00-.48.2l-.024.03a.676.676 0 00-.175.45.713.713 0 00.2.49l.025.02a.672.672 0 00.455.18.69.69 0 00.482-.2.713.713 0 00.2-.49.692.692 0 00-.2-.48.691.691 0 00-.481-.2zm-1.506-.83a2.14 2.14 0 013.013 0v.01a2.127 2.127 0 010 3.01 2.11 2.11 0 01-2.957.05l-.053-.05a2.126 2.126 0 01-.048-2.96z" fill="#18d433" fill-rule="evenodd"/></svg>