<svg xmlns="http://www.w3.org/2000/svg" width="61.969" height="51.97"><path d="M30.988 51.96a.97.97 0 010-1.94H52a.97.97 0 010 1.94H30.99zm26.013 0h4a.974.974 0 00.969-.97v-.03A25.98 25.98 0 0044.676 26.5a.965.965 0 10-.643 1.82 24.063 24.063 0 0115.98 21.7H57a.97.97 0 000 1.94zm-29.7-25.46a.965.965 0 11.643 1.82 23.779 23.779 0 00-2.216.92 22.136 22.136 0 00-2.116 1.13.967.967 0 11-.991-1.66c.742-.44 1.508-.85 2.284-1.22a25.9 25.9 0 012.395-.99zM35.988-.01a13.479 13.479 0 11-9.528 3.95 13.426 13.426 0 019.528-3.95zm8.158 5.32a11.54 11.54 0 103.38 8.16 11.491 11.491 0 00-3.378-8.16zM35.988-.01a13.44 13.44 0 018.15 2.75l.061.05a13.468 13.468 0 014.774 7.09.958.958 0 01-.672 1.18.774.774 0 01-.257.04H37.809a7.274 7.274 0 01-7.258-7.26V1.78a.957.957 0 01.693-.92 13.238 13.238 0 012.295-.64 13.421 13.421 0 012.451-.23zm6.977 4.29a11.429 11.429 0 00-6.977-2.35 11.037 11.037 0 00-2.1.19 9.69 9.69 0 00-1.4.35v1.37a5.333 5.333 0 005.321 5.32H46.7a11.582 11.582 0 00-3.68-4.85zM23.03 9.78a13.5 13.5 0 018.143-8.9.967.967 0 011.248.56.929.929 0 01.063.34v2.06a7.276 7.276 0 01-7.26 7.26h-1.293a.969.969 0 01-.9-1.32zm4.415-4.07a11.668 11.668 0 00-2.167 3.45 5.335 5.335 0 005.271-5.32v-.55a11.714 11.714 0 00-3.102 2.42zm5.357 28.06l2.5-2.5a.966.966 0 011.37 0l2.5 2.5a.969.969 0 010 1.37l-2.5 2.5a.966.966 0 01-1.37 0l-2.5-2.5a.971.971 0 010-1.37zm3.186-.44l-1.131 1.13 1.131 1.13 1.131-1.13zm3.668 13.93a.966.966 0 01-1.816.66l-1.852-5.12-1.851 5.12a.966.966 0 01-1.816-.66l2.756-7.62a.993.993 0 01.582-.59.969.969 0 011.237.58zm-.5-26.3a.959.959 0 011.262.51.971.971 0 01-.514 1.27 10.1 10.1 0 01-7.829 0 .971.971 0 01-.514-1.27.959.959 0 011.262-.51 8.121 8.121 0 001.547.48 8.812 8.812 0 003.238 0 8.109 8.109 0 001.549-.48zm10.773 24.56a.964.964 0 011.777-.75 16.053 16.053 0 011.26 6.22.969.969 0 11-1.938 0 13.9 13.9 0 00-1.098-5.47zm-43.1-6.25a.963.963 0 011.317.36.973.973 0 01-.363 1.32 11.521 11.521 0 00-5.807 9.07h22.995a11.521 11.521 0 00-5.807-9.07.972.972 0 01-.363-1.32.962.962 0 011.316-.36 13.578 13.578 0 015.007 4.95 13.41 13.41 0 011.824 6.74v.03a.974.974 0 01-.969.97H.973a.973.973 0 01-.968-.97 13.4 13.4 0 011.824-6.77 13.575 13.575 0 015.006-4.95zm6.644-14.26a7.215 7.215 0 015.106 12.32v.01a7.219 7.219 0 01-10.2 0v-.01a7.21 7.21 0 010-10.2v-.01a7.22 7.22 0 015.1-2.11zm3.736 3.48a5.277 5.277 0 00-7.472 0 5.3 5.3 0 000 7.48 5.3 5.3 0 007.472 0h.005a5.3 5.3 0 00.001-7.48zm2.292 1.1a.97.97 0 010 1.94h-6.369a4.079 4.079 0 01-2.9-1.21 4.133 4.133 0 01-1.208-2.91.969.969 0 011.937 0 2.178 2.178 0 00.636 1.54v.01a2.18 2.18 0 001.536.63h6.369zm-7 12.82a.969.969 0 111.938 0v5.18a.969.969 0 11-1.938 0v-5.18zm2.365-8.13a.96.96 0 011.263.51.974.974 0 01-.515 1.27 5.291 5.291 0 01-1.047.32 5.111 5.111 0 01-1.1.11 5.83 5.83 0 01-1.1-.11h-.024a6.839 6.839 0 01-1.023-.32.975.975 0 01-.514-1.27.959.959 0 011.262-.51 3.493 3.493 0 00.642.2l.044.01a3.636 3.636 0 001.42 0 3.871 3.871 0 00.701-.21zm28.985-7.7a.967.967 0 01.991 1.66 17.2 17.2 0 01-17.722 0 .966.966 0 01.99-1.66 15.354 15.354 0 0011.959 1.63 14.936 14.936 0 003.791-1.63zM19.04 39.35a.966.966 0 111.194 1.52c-.224.17-.469.35-.724.52s-.512.32-.761.46-.515.27-.805.4-.567.24-.834.33a.965.965 0 11-.643-1.82c.249-.09.482-.18.69-.27s.43-.21.661-.34.433-.25.627-.37.4-.28.595-.43zm-8.567 1.41a.965.965 0 11-.642 1.82c-.267-.09-.548-.21-.834-.33s-.563-.27-.8-.4-.49-.29-.756-.46c-.242-.16-.485-.34-.723-.52a.973.973 0 01-.167-1.36.962.962 0 011.354-.16c.187.14.39.29.6.43a13.26 13.26 0 001.287.71c.208.1.442.18.69.27z" fill="#18d433" fill-rule="evenodd"/></svg>