<svg xmlns="http://www.w3.org/2000/svg" width="62" height="62"><path d="M4.86 36.81a.965.965 0 110-1.93l4.77.01 8.05-9.37a.966.966 0 011.36-.1.728.728 0 01.17.18l6.99 8.74 14.74-16.58a.967.967 0 011.37-.08l.07.08 8.83 8.81 3.22-4.83a.965.965 0 111.6 1.08l-3.85 5.77a1.1 1.1 0 01-.14.18.966.966 0 01-1.37 0l-8.96-8.96-14.82 16.68v-.01l-.12.12a.97.97 0 01-1.36-.16l-7.02-8.78-7.58 8.82a.962.962 0 01-.74.34l-5.21-.01zm37.48-19.09l.04.04zM30.05 5.8a.97.97 0 010 1.94H1.95v34.91h58.12V7.74H33.92a.97.97 0 010-1.94h27.12a.971.971 0 01.97.97v36.84a.965.965 0 01-.97.97H.98a.971.971 0 01-.97-.97V6.77a.977.977 0 01.97-.97h29.07zM29.08.95a.965.965 0 011.93 0v5.82a.965.965 0 01-1.93 0V.95zm0 46.52a.965.965 0 011.93 0v9.7a.965.965 0 01-1.93 0v-9.7zm-13.53-.26a.963.963 0 011.19-.67.974.974 0 01.67 1.2l-3.87 13.57a.967.967 0 01-1.86-.53zm27.13.53a.967.967 0 111.86-.53l3.87 13.57a.967.967 0 01-1.86.53zm-41.7.72a.97.97 0 010-1.94h60.06a.97.97 0 010 1.94H.98z" fill="#18d433" fill-rule="evenodd"/></svg>