<svg xmlns="http://www.w3.org/2000/svg" width="61.969" height="61.88"><path d="M11.624 59.93a.965.965 0 110 1.93 11.592 11.592 0 01-1.014-23.14.968.968 0 01.158 1.93 9.659 9.659 0 00.856 19.28zm35.827 0a.965.965 0 110 1.93H11.413a.965.965 0 110-1.93h36.038zM18.285 40.78a.96.96 0 11-1.1 1.57 9.927 9.927 0 00-1.62-.91l-.076-.04a9.569 9.569 0 00-1.7-.55 9.463 9.463 0 00-1.919-.24 9.829 9.829 0 00-1.929.14.964.964 0 11-.331-1.9 12.79 12.79 0 012.306-.17 11.647 11.647 0 012.3.29 12.312 12.312 0 012.036.67l.084.03a11.147 11.147 0 011.949 1.11zm-10.4 9.49a.969.969 0 01-1.937 0 5.8 5.8 0 01.116-1.14 5.874 5.874 0 01.864-2.06 5.592 5.592 0 011.561-1.56 5.108 5.108 0 01.974-.52 5.454 5.454 0 01.852-.29l.038-.01c.284-.06.567-.11.841-.14a.969.969 0 01.166 1.93 4.391 4.391 0 00-.546.08l-.037.01a4.417 4.417 0 00-.566.19 3.8 3.8 0 00-.64.35 3.505 3.505 0 00-.569.47 4.531 4.531 0 00-.47.56 4.131 4.131 0 00-.35.64 3.821 3.821 0 00-.22.73 3.847 3.847 0 00-.073.76zm39.562 11.59a.965.965 0 110-1.93 12.754 12.754 0 002.51-.25 12.111 12.111 0 004.518-1.89 12.4 12.4 0 001.871-1.54 12.419 12.419 0 002.7-3.99 12.515 12.515 0 00.739-2.38 12.877 12.877 0 000-5.01 12.462 12.462 0 00-.739-2.39 12.671 12.671 0 00-2.7-3.99 12.981 12.981 0 00-1.871-1.54 12.778 12.778 0 00-2.125-1.15 12.1 12.1 0 00-2.393-.74 12.592 12.592 0 00-11.41 3.43.969.969 0 01-1.37-1.37 15.086 15.086 0 012.16-1.77 14.612 14.612 0 012.46-1.33 14.371 14.371 0 012.768-.85 14.49 14.49 0 015.769 0 14.247 14.247 0 012.764.85 14.68 14.68 0 012.459 1.33 15.188 15.188 0 012.159 1.77 14.617 14.617 0 013.108 4.61 14.641 14.641 0 01.854 2.77 14.4 14.4 0 01.291 2.87 14.579 14.579 0 01-.291 2.88 14.438 14.438 0 01-6.121 9.14 14.68 14.68 0 01-2.459 1.33 14.247 14.247 0 01-2.764.85 14.656 14.656 0 01-2.883.29zm-1.745-33.19a.957.957 0 01-.125 1.35.972.972 0 01-1.357-.12 18.643 18.643 0 00-5.339-4.42.962.962 0 01-.382-1.31.979.979 0 011.313-.38 20.88 20.88 0 013.167 2.16 20.166 20.166 0 012.723 2.72zm-28.9-2.52a.964.964 0 011.249 1.47 18.1 18.1 0 00-2.9 3.12 17.8 17.8 0 00-2.085 3.68.966.966 0 01-1.784-.74 20.031 20.031 0 012.311-4.08 20.289 20.289 0 013.217-3.45zm37.419 21.22a.969.969 0 11-1.938 0 4.887 4.887 0 00-.092-.96 4.733 4.733 0 00-.281-.92 4.841 4.841 0 00-.446-.82l-.021-.03a4.693 4.693 0 00-.575-.68l-.05-.06a4.794 4.794 0 00-.666-.54 5.337 5.337 0 00-.818-.44 4.3 4.3 0 00-.92-.28l-.073-.02a5.067 5.067 0 00-.895-.08.965.965 0 110-1.93 6.7 6.7 0 011.259.12l.087.01a7.443 7.443 0 011.289.4 7.236 7.236 0 011.147.62 7.092 7.092 0 01.949.77l.062.06a6.678 6.678 0 01.789.95l.039.06a6.4 6.4 0 01.62 1.14 6.789 6.789 0 01.4 1.29 6.93 6.93 0 01.142 1.34zm-21.3-29.12h4.253a.966.966 0 01.838 1.45l-10.4 23.34a.963.963 0 01-1.844-.38V25.39h-4.252a.967.967 0 01-.968-.97.954.954 0 01.13-.48L31.078.59a.972.972 0 011.27-.49.961.961 0 01.573.88h.006v17.27zm2.769 1.93h-3.738a.967.967 0 01-.968-.97V5.52L23 23.46h3.736a.965.965 0 01.969.96v13.7z" fill="#18d433" fill-rule="evenodd"/></svg>